<svg width="210" height="32" viewBox="0 0 210 32" fill="none" xmlns="http://www.w3.org/2000/svg">
<path d="M12.9676 27.0001V23.1651C12.9676 20.2726 12.6101 19.4276 11.5051 17.0225L5.72003 4.41245H1.625L9.03506 20.5326V27.0001H12.9676ZM15.5351 15.3325L20.3451 4.41245H16.3476L11.5376 15.3325H15.5351ZM56.6154 27.3251C58.4354 27.3251 59.9305 26.4801 60.9705 24.8876L61.1655 27.0001H64.7405V4.41245H60.873V12.57C59.898 11.1075 58.4679 10.3275 56.7779 10.3275C53.0404 10.3275 50.4404 13.48 50.4404 18.9401C50.4404 24.3351 52.9754 27.3251 56.6154 27.3251ZM80.3731 25.8951V22.7426C79.1706 23.5551 77.1556 24.2701 75.2706 24.2701C72.4431 24.2701 71.3705 22.9376 71.208 20.2076H80.5356V18.1601C80.5356 12.4725 78.0331 10.3275 74.1656 10.3275C69.453 10.3275 67.2105 13.935 67.2105 18.8751C67.2105 24.5626 70.0055 27.3251 74.9456 27.3251C77.4156 27.3251 79.2356 26.6751 80.3731 25.8951ZM31.7202 15.8525C31.7202 11.8875 29.7052 10.3925 25.6102 10.3925C23.0752 10.3925 21.0277 11.465 19.8576 12.31V15.6575C21.0927 14.65 22.9777 13.48 25.1552 13.48C27.0077 13.48 27.8527 14.13 27.8527 15.885V16.925H27.2352C21.3202 16.925 18.6876 18.8426 18.6876 22.2551C18.6876 25.4076 20.7026 27.2276 23.6927 27.2276C25.9677 27.2276 26.9427 26.4801 27.6902 25.7001H27.8527C27.8852 26.1226 28.0152 26.6751 28.1452 27.0001H31.9152C31.7852 25.6676 31.7202 24.3351 31.7202 23.0026V15.8525ZM38.7403 15.2675C39.4553 14.39 40.5928 13.6425 41.9903 13.6425C43.3553 13.6425 43.9728 14.2275 43.9728 15.4625V27.0001H47.8404V15.0725C47.8404 11.8225 46.5403 10.3925 43.3878 10.3925C41.0803 10.3925 39.7153 11.2375 38.9353 12.0175H38.7403L38.6428 10.6525H34.8728V27.0001H38.7403V15.2675ZM92.2682 27.0001H96.6232L91.2932 18.5826L95.9082 10.6525H92.0407L89.2457 15.5925L86.1257 10.6525H81.7706L86.7107 18.4851L81.5756 27.0001H85.5081L88.7907 21.4751L92.2682 27.0001ZM57.7529 13.3825C59.833 13.3825 60.873 15.04 60.873 18.8101C60.873 22.6126 59.768 24.2701 57.5904 24.2701C55.4779 24.2701 54.4379 22.6451 54.4379 18.9401C54.4379 15.0725 55.5429 13.3825 57.7529 13.3825ZM74.1006 13.3825C76.0181 13.3825 76.6031 14.975 76.6031 17.0225V17.3475H71.208C71.3055 14.7475 72.248 13.3825 74.1006 13.3825ZM27.8527 23.1001C27.3652 23.8151 26.4552 24.4001 25.0902 24.4001C23.4652 24.4001 22.6527 23.4576 22.6527 22.0276C22.6527 20.1426 23.9852 19.4926 27.3002 19.4926H27.8527V23.1001Z" fill="white"/>
<path d="M113.015 27L115.485 11.9199L117.76 27H123.187L125.95 4.41235H122.765L120.62 22.385L117.695 4.41235H113.697L110.707 22.4825L108.627 4.41235H104.987L107.75 27H113.015Z" fill="white"/>
<path d="M139.744 25.895V22.7425C138.541 23.555 136.526 24.27 134.641 24.27C131.813 24.27 130.741 22.9375 130.578 20.2075H139.906V18.16C139.906 12.4724 137.404 10.3274 133.536 10.3274C128.823 10.3274 126.581 13.9349 126.581 18.875C126.581 24.5625 129.376 27.325 134.316 27.325C136.786 27.325 138.606 26.675 139.744 25.895ZM133.471 13.3824C135.388 13.3824 135.974 14.9749 135.974 17.0225V17.3475H130.578C130.676 14.7474 131.618 13.3824 133.471 13.3824Z" fill="white"/>
<path d="M154.717 15.8524C154.717 11.8874 152.702 10.3924 148.607 10.3924C146.04 10.3924 144.025 11.2049 142.855 11.8874V15.1049C143.895 14.3249 146.17 13.4799 148.152 13.4799C150.005 13.4799 150.85 14.1299 150.85 15.8849V16.795H150.232C144.317 16.795 141.685 18.745 141.685 22.06C141.685 25.375 143.7 27.2275 146.69 27.2275C148.965 27.2275 149.94 26.48 150.687 25.7H150.85C150.882 26.1225 151.012 26.675 151.142 27H154.912C154.782 25.6675 154.717 24.335 154.717 23.0025V15.8524ZM150.85 23.1C150.362 23.815 149.452 24.4 148.087 24.4C146.462 24.4 145.65 23.425 145.65 21.9625C145.65 20.045 146.982 19.3625 150.297 19.3625H150.85V23.1Z" fill="white"/>
<path d="M156.209 10.6524V13.7074H158.257V22.0925C158.257 25.1475 159.98 27.325 163.555 27.325C165.44 27.325 166.512 26.9025 166.512 26.9025V23.75C166.512 23.75 165.797 24.27 164.497 24.27C162.872 24.27 162.125 23.3275 162.125 22.125V13.7074H166.187V10.6524H162.125V7.07737H158.257V10.6524H156.209Z" fill="white"/>
<path d="M172.327 15.2674C173.042 14.3899 174.179 13.6424 175.577 13.6424C176.942 13.6424 177.559 14.2274 177.559 15.4624V27H181.427V15.0724C181.427 11.8224 180.127 10.3924 176.974 10.3924C174.667 10.3924 173.302 11.2374 172.522 12.0174H172.327V4.41235H168.459V27H172.327V15.2674Z" fill="white"/>
<path d="M197.032 25.895V22.7425C195.829 23.555 193.814 24.27 191.929 24.27C189.102 24.27 188.029 22.9375 187.867 20.2075H197.194V18.16C197.194 12.4724 194.692 10.3274 190.824 10.3274C186.111 10.3274 183.869 13.9349 183.869 18.875C183.869 24.5625 186.664 27.325 191.604 27.325C194.074 27.325 195.894 26.675 197.032 25.895ZM190.759 13.3824C192.677 13.3824 193.262 14.9749 193.262 17.0225V17.3475H187.867C187.964 14.7474 188.907 13.3824 190.759 13.3824Z" fill="white"/>
<path d="M203.653 16.795C204.725 14.8124 206.318 13.8049 208.69 13.9349V10.2949C206.48 10.4249 204.66 11.7574 203.75 13.9024H203.653L203.555 10.6524H199.785V27H203.653V16.795Z" fill="white"/>
</svg>
